<?xml version="1.0" encoding="utf-8"?>
<!-- Generator: Adobe Illustrator 16.0.0, SVG Export Plug-In . SVG Version: 6.00 Build 0)  -->
<!DOCTYPE svg PUBLIC "-//W3C//DTD SVG 1.1//EN" "http://www.w3.org/Graphics/SVG/1.1/DTD/svg11.dtd">
<svg version="1.1" xmlns="http://www.w3.org/2000/svg" xmlns:xlink="http://www.w3.org/1999/xlink" x="0px" y="0px" width="100.3px"
	 height="97.7px" viewBox="0 0 100.3 97.7" style="enable-background:new 0 0 100.3 97.7;" xml:space="preserve">
<g id="Layer_2">
</g>
<g id="game_x5F_icons">
	<path d="M50,1.3C23.5,1.3,2.1,22.8,2.1,49.2c0,26.5,21.5,47.9,47.9,47.9c26.5,0,47.9-21.5,47.9-47.9C97.9,22.8,76.5,1.3,50,1.3z
		 M80.5,53.1c0,1.9-1.6,3.5-3.5,3.5H60.9c-1.9,0-3.5,1.6-3.5,3.5v16.1c0,1.9-1.6,3.5-3.5,3.5l-7.7,0c-1.9,0-3.5-1.6-3.5-3.5l0-16.1
		c0-1.9-1.6-3.5-3.5-3.5l-16.1,0c-1.9,0-3.5-1.6-3.5-3.5v-7.7c0-1.9,1.6-3.5,3.5-3.5l16.1,0c1.9,0,3.5-1.6,3.5-3.5V22.2
		c0-1.9,1.6-3.5,3.5-3.5l7.7,0c1.9,0,3.5,1.6,3.5,3.5v16.1c0,1.9,1.6,3.5,3.5,3.5l16.1,0c1.9,0,3.5,1.6,3.5,3.5L80.5,53.1z"/>
</g>
</svg>
