<?xml version="1.0" encoding="utf-8"?>
<!-- Generator: Adobe Illustrator 16.0.0, SVG Export Plug-In . SVG Version: 6.00 Build 0)  -->
<!DOCTYPE svg PUBLIC "-//W3C//DTD SVG 1.1//EN" "http://www.w3.org/Graphics/SVG/1.1/DTD/svg11.dtd">
<svg version="1.1" xmlns="http://www.w3.org/2000/svg" xmlns:xlink="http://www.w3.org/1999/xlink" x="0px" y="0px" width="100.3px"
	 height="97.7px" viewBox="0 0 100.3 97.7" style="enable-background:new 0 0 100.3 97.7;" xml:space="preserve">
<g id="Layer_2">
</g>
<g id="game_x5F_icons">
	<g>
		<path d="M25.8,23.3h1.4c2.1,0,3.8-1.7,3.8-3.8V5c0-2.1-1.7-3.8-3.8-3.8h-1.4C23.7,1.2,22,2.9,22,5v14.4
			C22,21.6,23.7,23.3,25.8,23.3L25.8,23.3z M25.8,23.3"/>
		<path d="M74.7,23.2h1.4c2.1,0,3.8-1.7,3.8-3.8V4.9c0-2.1-1.7-3.8-3.8-3.8h-1.4c-2.1,0-3.8,1.7-3.8,3.8v14.4
			C70.9,21.5,72.6,23.2,74.7,23.2L74.7,23.2z M74.7,23.2"/>
		<path d="M92.7,8.9H83v11.4c0,3.8-3.1,5.9-6.9,5.9h-1.4c-3.8,0-6.9-3.1-6.9-6.9V8.9H34.1v10.5c0,3.8-3.1,6.9-6.9,6.9h-1.4
			c-3.8,0-6.9-3.1-6.9-6.9V8.9H8.4c-3.4,0-6.2,2.8-6.2,6.2v74.8c0,3.4,2.8,6.2,6.2,6.2h84.4c3.4,0,6.2-2.8,6.2-6.2V15.1
			C98.9,11.7,96.2,8.9,92.7,8.9L92.7,8.9z M92.7,89.9H8.4V33.5h84.4V89.9C92.7,89.9,92.7,89.9,92.7,89.9L92.7,89.9z M92.7,89.9"/>
		<path d="M53.8,52.4h11.1c0.4,0,0.8-0.4,0.8-0.8V42c0-0.4-0.4-0.8-0.8-0.8H53.8c-0.4,0-0.8,0.4-0.8,0.8v9.6
			C53,52,53.3,52.4,53.8,52.4L53.8,52.4z M53.8,52.4"/>
		<path d="M71.9,52.4H83c0.4,0,0.8-0.4,0.8-0.8V42c0-0.4-0.4-0.8-0.8-0.8H71.9c-0.4,0-0.8,0.4-0.8,0.8v9.6
			C71.1,52,71.5,52.4,71.9,52.4L71.9,52.4z M71.9,52.4"/>
		<path d="M17.5,68.2h11.1c0.4,0,0.8-0.4,0.8-0.8v-9.6c0-0.4-0.4-0.8-0.8-0.8H17.5c-0.4,0-0.8,0.4-0.8,0.8v9.6
			C16.7,67.8,17,68.2,17.5,68.2L17.5,68.2z M17.5,68.2"/>
		<path d="M35.6,68.2h11.1c0.4,0,0.8-0.4,0.8-0.8v-9.6c0-0.4-0.4-0.8-0.8-0.8H35.6c-0.4,0-0.8,0.4-0.8,0.8v9.6
			C34.8,67.8,35.2,68.2,35.6,68.2L35.6,68.2z M35.6,68.2"/>
		<path d="M53.8,68.2h11.1c0.4,0,0.8-0.4,0.8-0.8v-9.6c0-0.4-0.4-0.8-0.8-0.8H53.8c-0.4,0-0.8,0.4-0.8,0.8v9.6
			C53,67.8,53.3,68.2,53.8,68.2L53.8,68.2z M53.8,68.2"/>
		<path d="M71.9,68.2H83c0.4,0,0.8-0.4,0.8-0.8v-9.6c0-0.4-0.4-0.8-0.8-0.8H71.9c-0.4,0-0.8,0.4-0.8,0.8v9.6
			C71.1,67.8,71.5,68.2,71.9,68.2L71.9,68.2z M71.9,68.2"/>
		<path d="M28.6,72.7H17.5c-0.4,0-0.8,0.4-0.8,0.8v9.6c0,0.4,0.4,0.8,0.8,0.8h11.1c0.4,0,0.8-0.4,0.8-0.8v-9.6
			C29.4,73.1,29,72.7,28.6,72.7L28.6,72.7z M28.6,72.7"/>
		<path d="M46.7,72.7H35.6c-0.4,0-0.8,0.4-0.8,0.8v9.6c0,0.4,0.4,0.8,0.8,0.8h11.1c0.4,0,0.8-0.4,0.8-0.8v-9.6
			C47.5,73.1,47.2,72.7,46.7,72.7L46.7,72.7z M46.7,72.7"/>
		<path d="M64.9,72.7H53.8c-0.4,0-0.8,0.4-0.8,0.8v9.6c0,0.4,0.4,0.8,0.8,0.8h11.1c0.4,0,0.8-0.4,0.8-0.8v-9.6
			C65.7,73.1,65.3,72.7,64.9,72.7L64.9,72.7z M64.9,72.7"/>
		<path d="M83,72.7H71.9c-0.4,0-0.8,0.4-0.8,0.8v9.6c0,0.4,0.4,0.8,0.8,0.8H83c0.4,0,0.8-0.4,0.8-0.8v-9.6
			C83.8,73.1,83.5,72.7,83,72.7L83,72.7z M83,72.7"/>
	</g>
</g>
</svg>
