<?xml version="1.0" encoding="utf-8"?>
<!-- Generator: Adobe Illustrator 16.0.0, SVG Export Plug-In . SVG Version: 6.00 Build 0)  -->
<!DOCTYPE svg PUBLIC "-//W3C//DTD SVG 1.1//EN" "http://www.w3.org/Graphics/SVG/1.1/DTD/svg11.dtd">
<svg version="1.1" xmlns="http://www.w3.org/2000/svg" xmlns:xlink="http://www.w3.org/1999/xlink" x="0px" y="0px" width="100.3px"
	 height="100.1px" viewBox="0 0 100.3 100.1" style="enable-background:new 0 0 100.3 100.1;" xml:space="preserve">
<g id="Layer_2">
</g>
<g id="game_x5F_icons">
	<path d="M50.3,1.5c-27,0-48.8,21.9-48.8,48.8c0,27,21.9,48.8,48.8,48.8c27,0,48.8-21.8,48.8-48.8C99.1,23.4,77.3,1.5,50.3,1.5z
		 M45.5,75.8c-1.4,1.8-3.8,1.9-5.4,0.3L14.1,49.5c-1.6-1.6-1.6-4.2,0-5.8l6.1-6.1c1.6-1.6,4.2-1.6,5.8,0.1l15.2,14.9
		c1.6,1.6,4,1.5,5.4-0.3l28.2-27.4c1.4-1.8,3.9-2,5.5-0.5l6,5.8c1.7,1.5,1.9,4.3,0.5,6.1L45.5,75.8z"/>
</g>
</svg>
