<?xml version="1.0" encoding="utf-8"?>
<!-- Generator: Adobe Illustrator 16.0.0, SVG Export Plug-In . SVG Version: 6.00 Build 0)  -->
<!DOCTYPE svg PUBLIC "-//W3C//DTD SVG 1.1//EN" "http://www.w3.org/Graphics/SVG/1.1/DTD/svg11.dtd">
<svg version="1.1" xmlns="http://www.w3.org/2000/svg" xmlns:xlink="http://www.w3.org/1999/xlink" x="0px" y="0px" width="88.8px"
	 height="99.3px" viewBox="0 0 88.8 99.3" style="enable-background:new 0 0 88.8 99.3;" xml:space="preserve">
<g id="Layer_2">
</g>
<g id="game_x5F_icons">
	<g>
		<g>
			<path d="M72.9,46.5h14.4v43.9c0,0-8.9,0-11,0c-2.1,0-18.6,7.4-25,7.5c-6.4,0.2-28.3,0-31.3,0c-3,0-11.9-1.3-8.9-10.9
				c-5.3-0.8-10.2-8.7-5.3-15.1c-5.6-1.9-7.2-13.8,0.4-17c-4.3-3.4-2.8-14.7,6.6-14.7c10.6,0,16.2,0,18.7,0c2.5,0,4.5-0.9,2.8-5.5
				c-0.9-2.5-8.4-21.8,5.9-32.4c3.2-2.5,7.7-1.7,7,3.2c-0.9,6.6,1.7,15.7,2.5,17.9c0.8,2.3,13.9,19.3,13.9,19.3S65.9,46.5,72.9,46.5
				z"/>
		</g>
	</g>
</g>
</svg>
