<?xml version="1.0" encoding="utf-8"?>
<!-- Generator: Adobe Illustrator 16.0.0, SVG Export Plug-In . SVG Version: 6.00 Build 0)  -->
<!DOCTYPE svg PUBLIC "-//W3C//DTD SVG 1.1//EN" "http://www.w3.org/Graphics/SVG/1.1/DTD/svg11.dtd">
<svg version="1.1" xmlns="http://www.w3.org/2000/svg" xmlns:xlink="http://www.w3.org/1999/xlink" x="0px" y="0px" width="100px"
	 height="81.4px" viewBox="0 0 100 81.4" style="enable-background:new 0 0 100 81.4;" xml:space="preserve">
<g id="Layer_2">
</g>
<g id="game_x5F_icons">
	<g>
		<path d="M56.9,67.4c0.3-0.4,0.3-1.3-0.1-1.7L43.7,51.4c-1.1-1.2-1.7-2.8-1.6-4.5c0.1-1.6,0.9-3.1,2.1-4.2l13.4-11.2
			c0.4-0.4,0.6-1.2,0.3-1.6c0,0-6.8-11.9-9.5-15.6C45.3,10.1,37.5,1,26.4,1C12.8,1,1.8,12.2,1,25.7c-0.4,7.7,2.1,13.5,5.5,18.8
			c6,9.2,29.8,29.6,40.1,34.7c0.2,0.1,0.7,0.2,1.4-0.7L56.9,67.4z M56.9,67.4"/>
		<path d="M99.4,25.7C98.7,12.2,87.6,1,74.1,1c-8.9,0-15.6,6.6-19.7,11c-0.2,0.2-0.6,0.7,0.1,1.8L62.5,27c1.7,2.8,1.1,6.6-1.4,8.7
			L47.7,46.9c-0.2,0.1-0.2,0.3-0.2,0.4c0,0.1,0,0.3,0.2,0.4L60.8,62c2.2,2.4,2.3,6.2,0.3,8.8l-5.6,7.1c-0.5,0.5-0.3,0.6-0.1,0.5
			c11-6.2,32.6-25.1,38.4-33.9C97.4,39.2,99.8,33.4,99.4,25.7L99.4,25.7z M99.4,25.7"/>
	</g>
</g>
</svg>
