<?xml version="1.0" encoding="utf-8"?>
<!-- Generator: Adobe Illustrator 16.0.0, SVG Export Plug-In . SVG Version: 6.00 Build 0)  -->
<!DOCTYPE svg PUBLIC "-//W3C//DTD SVG 1.1//EN" "http://www.w3.org/Graphics/SVG/1.1/DTD/svg11.dtd">
<svg version="1.1" xmlns="http://www.w3.org/2000/svg" xmlns:xlink="http://www.w3.org/1999/xlink" x="0px" y="0px" width="88.8px"
	 height="99.3px" viewBox="0 0 88.8 99.3" style="enable-background:new 0 0 88.8 99.3;" xml:space="preserve">
<g id="Layer_2">
</g>
<g id="game_x5F_icons">
	<g>
		<g>
			<path d="M73.4,52.9h14.5V8.7c0,0-9,0-11.1,0c-2.1,0-18.8-7.4-25.2-7.6c-6.5-0.2-28.5,0-31.6,0s-12,1.3-8.9,11
				c-5.3,0.8-10.3,8.7-5.3,15.2c-5.7,1.9-7.2,13.9,0.4,17.1c-4.4,3.4-2.9,14.8,6.7,14.8c10.6,0,16.4,0,18.8,0c2.5,0,4.6,1,2.9,5.5
				c-0.9,2.5-8.5,22,6,32.6c3.2,2.5,7.7,1.7,7-3.2c-0.9-6.6,1.7-15.8,2.5-18.1c0.8-2.3,14-19.5,14-19.5S66.4,52.9,73.4,52.9z"/>
		</g>
	</g>
</g>
</svg>
