<?xml version="1.0" encoding="utf-8"?>
<!-- Generator: Adobe Illustrator 16.0.0, SVG Export Plug-In . SVG Version: 6.00 Build 0)  -->
<!DOCTYPE svg PUBLIC "-//W3C//DTD SVG 1.1//EN" "http://www.w3.org/Graphics/SVG/1.1/DTD/svg11.dtd">
<svg version="1.1" xmlns="http://www.w3.org/2000/svg" xmlns:xlink="http://www.w3.org/1999/xlink" x="0px" y="0px" width="100.3px"
	 height="100.6px" viewBox="0 0 100.3 100.6" style="enable-background:new 0 0 100.3 100.6;" xml:space="preserve">
<g id="Layer_2">
</g>
<g id="game_x5F_icons">
	<path d="M49.9,1.4C22.9,1.4,1,23.4,1,50.4c0,27,21.9,48.9,48.9,48.9c27,0,48.9-21.9,48.9-48.9C98.9,23.4,77,1.4,49.9,1.4z M47.9,86
		c-4.2,0-7.7-3.4-7.7-7.7c0-4.2,3.4-7.7,7.7-7.7c4.3,0,7.7,3.4,7.7,7.7C55.6,82.5,52.2,86,47.9,86z M60.2,49.8
		c-3.4,3.8-5.9,7.6-6.6,11.7c-0.1,0.8-0.5,2.3-2.4,2.3c-1.9,0-5.6,0-7.1,0c-1.5,0-2.2-1.4-2.2-2.4c0-4.8,0.7-9.8,4.9-14.8
		c3.5-4.3,7.1-8.2,7.1-11.9c0-3.9-2.9-7.3-8.4-7.4c-2.7,0-6.4,1-9,2.4c-0.9,0.5-2.8,0.9-3.8-1c-1-1.9-2.1-4-2.8-5.5
		c-0.8-1.5-0.1-2.6,1-3.3c4.2-2.7,11.3-5.2,18-5.2c14.6,0,21.3,8.5,21.3,17.7C70.2,40.8,64.4,45.2,60.2,49.8z"/>
</g>
</svg>
