<?xml version="1.0" encoding="utf-8"?>
<!-- Generator: Adobe Illustrator 16.0.0, SVG Export Plug-In . SVG Version: 6.00 Build 0)  -->
<!DOCTYPE svg PUBLIC "-//W3C//DTD SVG 1.1//EN" "http://www.w3.org/Graphics/SVG/1.1/DTD/svg11.dtd">
<svg version="1.1" xmlns="http://www.w3.org/2000/svg" xmlns:xlink="http://www.w3.org/1999/xlink" x="0px" y="0px" width="100.3px"
	 height="76px" viewBox="0 0 100.3 76" style="enable-background:new 0 0 100.3 76;" xml:space="preserve">
<g id="Layer_2">
</g>
<g id="game_x5F_icons">
	<g>
		<g>
			<path d="M25.5,36.2c0,3.6,2.4,6.5,5.3,6.5h7.5c2.5,2.3,5.4,3.7,8.4,3.7c3.1,0,5.9-1.4,8.4-3.7h7.5c2.9,0,5.3-2.9,5.3-6.5v-9.5h0
				c0-0.7,0-1.5,0-2.3c0-12.7-9.5-23.1-21.3-23.1c-11.8,0-21.3,10.3-21.3,23.1c0,0.8,0,1.5,0,2.3h0V36.2z M46.8,43.7
				c-1.3,0-2.6-0.4-3.9-1c-1-0.5-2-1.3-3-2.2c-3.2-3-5.7-7.6-6.9-12.1l-0.2-0.9l-0.9-0.1c-0.4-0.1-0.9-0.3-1.4-0.7
				c-0.6-0.6-1.2-1.4-1.5-2.6c-0.3-1.4-0.2-2.7,0.3-3.6c0.2-0.3,0.6-0.8,1.1-0.9c0.1,0,0.2,0,0.3,0c0.1,0,0.2,0,0.2,0l0.5,0
				c2.1,3.2,8.1,2.4,13.4-1.9c1.1-0.9,2-1.8,2.8-2.8c2-0.2,4.2-0.3,6.3,0.3c4.7,1.2,6,3.8,7.3,4.4l0,0.1l0.2,0
				c0.2,0.1,0.5,0,0.8-0.1l0.3,0c0.2,0,0.4,0,0.5,0c0.6,0.1,0.9,0.6,1.1,0.9c0.6,0.9,0.7,2.3,0.3,3.6c-0.3,1.1-0.9,2-1.5,2.6
				c-0.5,0.4-0.9,0.7-1.4,0.7l-0.9,0.1l-0.2,0.9c-1.2,4.4-3.7,9-6.8,12c-1,0.9-2,1.7-3.1,2.3C49.5,43.4,48.1,43.7,46.8,43.7
				L46.8,43.7z M62.5,45.1c-1.7,2.8-3.6,5.2-6.1,6.5c-5.3,2.7-9.2,4.9-9.2,4.9l0,0v-0.1l-0.1,0l-0.1,0v0.1l0,0c0,0-3.9-2.2-9.2-4.9
				c-2.5-1.3-4.5-3.7-6.1-6.5C24,48.2,18.5,55.5,18.5,61.9V75h57.1V61.9C75.7,55.5,70.2,48.3,62.5,45.1L62.5,45.1z M62.5,45.1"/>
		</g>
		<g>
			<path d="M15.4,33.3c1.4,4.7,4.2,9.4,7.9,12.5c0.9-0.8,1.8-1.3,2.5-1.5c-3.8-2.7-6.7-7.6-8-12.5l-0.2-0.9l-0.9-0.1
				c-1.1-0.1-2.5-1.4-3-3.5c-0.3-1.5-0.1-3,0.5-3.9c0.3-0.5,0.6-0.8,1.1-0.9c0.1,0,0.2,0,0.3,0c0.1,0,0.2,0,0.2,0l1.3,0.1l0.2-1.3
				c0.4-2.7,1.2-5.1,2.4-7.2c1,1.2,2.5,2.1,4.4,2.9c0.5-7.6,5.3-12.2,10.5-15.1c-1-0.1-2-0.2-3.1-0.2c-10.5,0-19,6.9-19,15.4
				c0,1.2,0.2,2.4,0.5,3.5c-1.9,1.4-2.7,4.3-2,7.4C11.7,30.6,13.4,32.6,15.4,33.3z"/>
			<path d="M15.7,58.8c0-3.3,2.5-6.9,4.9-10c-1.9-1.5-3.5-3.5-4.9-5.9c-8.3,3.3-14,11.1-14,17.8v14h13.7
				C15.3,70.2,15.7,62.8,15.7,58.8z"/>
		</g>
		<path d="M97.3,18.5H70.1c0,2.9,0,6.7,0,10.1h27.2c1,0,1.8-0.8,1.8-1.8v-6.5C99.2,19.3,98.3,18.5,97.3,18.5z"/>
		<path d="M97.3,33.1H70.1c0,2.1-0.1,3.5-0.1,3.5s0.6,5.9-2.3,6.6h29.6c1,0,1.8-0.8,1.8-1.8V35C99.2,34,98.3,33.1,97.3,33.1z"/>
		<path d="M97.3,47.8h-24c2.3,2.3,4.2,5,4.4,7.4c0.1,0.8,0.1,1.8,0.1,2.8h19.5c1,0,1.8-0.8,1.8-1.8v-6.5
			C99.2,48.6,98.3,47.8,97.3,47.8z"/>
	</g>
</g>
</svg>
