<?xml version="1.0" encoding="utf-8"?>
<!-- Generator: Adobe Illustrator 16.0.0, SVG Export Plug-In . SVG Version: 6.00 Build 0)  -->
<!DOCTYPE svg PUBLIC "-//W3C//DTD SVG 1.1//EN" "http://www.w3.org/Graphics/SVG/1.1/DTD/svg11.dtd">
<svg version="1.1" xmlns="http://www.w3.org/2000/svg" xmlns:xlink="http://www.w3.org/1999/xlink" x="0px" y="0px" width="58.7px"
	 height="100.3px" viewBox="0 0 58.7 100.3" style="enable-background:new 0 0 58.7 100.3;" xml:space="preserve">
<g id="Layer_2">
</g>
<g id="game_x5F_icons">
	<g>
		<g>
			<path d="M17.9,65.4c0-6.7,0.9-13.5,6.8-20.4c4.9-5.9,9.8-11.4,9.8-16.4c0-5.3-4-10.1-11.6-10.2c-3.7,0-8.8,1.4-12.4,3.3
				c-1.3,0.7-3.8,1.3-5.2-1.4s-2.8-5.5-3.9-7.6c-1-2.1-0.1-3.6,1.3-4.5C8.6,4.5,18.4,1,27.6,1C47.7,1,57,12.7,57,25.4
				c0,11.6-8.1,17.6-13.8,24c-4.6,5.3-8.2,10.5-9.1,16.2c-0.2,1-0.6,3.2-3.3,3.2c-2.6,0-7.7,0.1-9.8,0.1
				C18.8,68.7,17.9,66.9,17.9,65.4z"/>
		</g>
		<path d="M36.8,88.6c0,5.9-4.7,10.6-10.6,10.6c-5.9,0-10.6-4.7-10.6-10.6c0-5.9,4.8-10.6,10.6-10.6C32.1,78,36.8,82.7,36.8,88.6z"
			/>
	</g>
</g>
</svg>
