<?xml version="1.0" encoding="utf-8"?>
<!-- Generator: Adobe Illustrator 16.0.0, SVG Export Plug-In . SVG Version: 6.00 Build 0)  -->
<!DOCTYPE svg PUBLIC "-//W3C//DTD SVG 1.1//EN" "http://www.w3.org/Graphics/SVG/1.1/DTD/svg11.dtd">
<svg version="1.1" xmlns="http://www.w3.org/2000/svg" xmlns:xlink="http://www.w3.org/1999/xlink" x="0px" y="0px" width="100.3px"
	 height="101.3px" viewBox="0 0 100.3 101.3" style="enable-background:new 0 0 100.3 101.3;" xml:space="preserve">
<g id="Layer_2">
</g>
<g id="game_x5F_icons">
	<path d="M50.1,1.9C23.1,1.8,1.2,23.6,1.1,50.7C0.9,77.7,22.7,99.8,49.7,100l48.7,0.1l0.2-49C98.8,24,77.2,2,50.1,1.9z M24,60.2
		c-5.1,0-9.2-4.1-9.2-9.2s4.1-9.2,9.2-9.2c5.1,0,9.2,4.1,9.2,9.2S29.1,60.2,24,60.2z M49.9,60.2c-5.1,0-9.2-4.1-9.2-9.2
		s4.1-9.2,9.2-9.2c5.1,0,9.2,4.1,9.2,9.2S55,60.2,49.9,60.2z M75.7,60.2c-5.1,0-9.2-4.1-9.2-9.2s4.1-9.2,9.2-9.2S85,45.9,85,51
		S80.8,60.2,75.7,60.2z"/>
</g>
</svg>
