<?xml version="1.0" encoding="utf-8"?>
<!-- Generator: Adobe Illustrator 16.0.0, SVG Export Plug-In . SVG Version: 6.00 Build 0)  -->
<!DOCTYPE svg PUBLIC "-//W3C//DTD SVG 1.1//EN" "http://www.w3.org/Graphics/SVG/1.1/DTD/svg11.dtd">
<svg version="1.1" xmlns="http://www.w3.org/2000/svg" xmlns:xlink="http://www.w3.org/1999/xlink" x="0px" y="0px" width="92.1px"
	 height="100.3px" viewBox="0 0 92.1 100.3" style="enable-background:new 0 0 92.1 100.3;" xml:space="preserve">
<g id="Layer_2">
</g>
<g id="game_x5F_icons">
	<g>
		<path d="M61.9,37.1c0,3-1.6,5.5-3.6,5.5c-2,0-3.6-2.5-3.6-5.5c0-3,1.6-5.5,3.6-5.5C60.2,31.6,61.9,34.1,61.9,37.1L61.9,37.1z"/>
		<g>
			<g>
				<path d="M78.7,1.5c-1.4,0-2.9,0.2-4.4,0.7c-0.1,0-0.1,0-0.2,0.1C74,2.4,61.3,7.5,44.6,7.5c-9.8,0-18.9-1.7-27.3-5.1
					c-1.6-0.6-3.2-1-4.7-1c-6.3,0-11,5.2-11,12.1V53c0,24.9,20.2,45.8,44.1,45.8c23.9,0,44.1-21,44.1-45.8V13.5
					C89.9,6.6,85.2,1.5,78.7,1.5L78.7,1.5z M83,53C83,74.1,66,92,45.7,92S8.4,74.1,8.4,53V13.5c0-3.1,1.7-5.3,4.2-5.3
					c0.7,0,1.4,0.2,2.2,0.5c9.2,3.7,19.2,5.6,29.9,5.6c17.4,0,30.5-5,31.9-5.6c0.7-0.2,1.5-0.4,2.1-0.4c2.7,0,4.3,2,4.3,5.1V53z
					 M83,53"/>
			</g>
			<path d="M33.3,42.7c-2,0-3.6-2.5-3.6-5.5c0-3,1.6-5.5,3.6-5.5c2,0,3.6,2.5,3.6,5.5C36.9,40.2,35.3,42.7,33.3,42.7L33.3,42.7z"/>
			<path d="M56.7,65.1c0,7.3-5.1,13.2-11.4,13.2c-6.3,0-11.4-5.9-11.4-13.2c0-7.3,5.1-13.2,11.4-13.2C51.6,51.9,56.7,57.9,56.7,65.1
				L56.7,65.1z"/>
		</g>
	</g>
</g>
</svg>
