<?xml version="1.0" encoding="utf-8"?>
<!-- Generator: Adobe Illustrator 16.0.0, SVG Export Plug-In . SVG Version: 6.00 Build 0)  -->
<!DOCTYPE svg PUBLIC "-//W3C//DTD SVG 1.1//EN" "http://www.w3.org/Graphics/SVG/1.1/DTD/svg11.dtd">
<svg version="1.1" xmlns="http://www.w3.org/2000/svg" xmlns:xlink="http://www.w3.org/1999/xlink" x="0px" y="0px" width="92.1px"
	 height="100.3px" viewBox="0 0 92.1 100.3" style="enable-background:new 0 0 92.1 100.3;" xml:space="preserve">
<g id="Layer_2">
</g>
<g id="game_x5F_icons">
	<g>
		<path d="M79.7,1.4c-1.4,0-2.9,0.3-4.4,0.7c-0.1,0-0.1,0.1-0.2,0.1c-0.1,0.1-12.9,5.2-29.7,5.2c-9.8,0-19.1-1.7-27.5-5.2
			c-1.6-0.6-3.2-1-4.8-1C6.8,1.2,2,6.4,2,13.4v39.8c0,25,20.3,46.1,44.4,46.1s44.4-21.1,44.4-46.1V13.4C90.9,6.4,86.2,1.4,79.7,1.4
			L79.7,1.4z M84,53.2c0,21.3-17.2,39.3-37.5,39.3S8.9,74.4,8.9,53.2V13.4c0-3.2,1.7-5.3,4.2-5.3c0.7,0,1.4,0.2,2.2,0.5
			c9.2,3.8,19.3,5.7,30.1,5.7c17.5,0,30.7-5,32.2-5.6c0.8-0.2,1.5-0.4,2.1-0.4c2.7,0,4.3,2,4.3,5.1V53.2z M84,53.2"/>
		<path d="M65.1,67.2c-1.1-1-2.9-0.9-3.9,0.2c-3.1,3.5-8.8,5.7-14.7,5.7s-11.6-2.2-14.7-5.7c-1-1.1-2.8-1.2-3.9-0.2
			c-1.1,1-1.2,2.8-0.2,3.9c4.2,4.7,11.2,7.5,18.8,7.5s14.7-2.8,18.8-7.5C66.3,70,66.2,68.2,65.1,67.2L65.1,67.2z M65.1,67.2"/>
		<path d="M76.5,41.3c-4.2-2.1-7.8-2.8-10.7-2.8c-6.1,0-9.3,3.1-9.5,3.3c-1.1,1.1-1.1,2.8-0.1,3.9c1.1,1.1,2.8,1.1,3.9,0.1
			c0.2-0.2,4.6-4.2,13.9,0.5c1.4,0.7,3,0.1,3.7-1.2C78.4,43.6,77.9,41.9,76.5,41.3L76.5,41.3z M76.5,41.3"/>
		<path d="M33.2,45.4c1.1,1.1,2.8,1,3.9-0.1c1.1-1.1,1-2.8-0.1-3.9c-0.2-0.2-3.4-3.3-9.5-3.3c-2.9,0-6.5,0.7-10.7,2.8
			c-1.4,0.7-1.9,2.3-1.2,3.7c0.7,1.4,2.3,1.9,3.7,1.2C28.6,41.2,33,45.2,33.2,45.4L33.2,45.4z M33.2,45.4"/>
	</g>
</g>
</svg>
