<?xml version="1.0" encoding="utf-8"?>
<!-- Generator: Adobe Illustrator 16.0.0, SVG Export Plug-In . SVG Version: 6.00 Build 0)  -->
<!DOCTYPE svg PUBLIC "-//W3C//DTD SVG 1.1//EN" "http://www.w3.org/Graphics/SVG/1.1/DTD/svg11.dtd">
<svg version="1.1" xmlns="http://www.w3.org/2000/svg" xmlns:xlink="http://www.w3.org/1999/xlink" x="0px" y="0px" width="92.1px"
	 height="100.3px" viewBox="0 0 92.1 100.3" style="enable-background:new 0 0 92.1 100.3;" xml:space="preserve">
<g id="Layer_2">
</g>
<g id="game_x5F_icons">
	<g>
		<path d="M58.4,50.6c-3,0-5.3-2.4-5.3-5.3c0-1.5,0.6-2.8,1.6-3.8c0,0,0,0,0-0.1l8.1-8.1c1.1-1.1,2.8-1.1,3.8,0s1.1,2.8,0,3.8
			l-4.5,4.5c0.9,1,1.5,2.3,1.5,3.7C63.7,48.2,61.3,50.6,58.4,50.6L58.4,50.6z"/>
		<path d="M34.1,50.6c2.9,0,5.3-2.4,5.3-5.3c0-1.5-0.6-2.8-1.6-3.8c0,0,0,0,0-0.1l-8.1-8.1c-1.1-1.1-2.8-1.1-3.8,0s-1.1,2.8,0,3.8
			l4.5,4.5c-0.9,1-1.5,2.3-1.5,3.7C28.8,48.2,31.2,50.6,34.1,50.6L34.1,50.6z"/>
		<path d="M30.2,67.7h32.9c1.7,0,3,1.3,3,3c0,1.7-1.3,3-3,3H30.2c-1.6,0-3-1.3-3-3C27.2,69.1,28.5,67.7,30.2,67.7L30.2,67.7z"/>
		<g>
			<path d="M79.3,1.6c-1.4,0-2.9,0.2-4.4,0.7c-0.1,0-0.1,0-0.2,0.1c-0.1,0.1-12.9,5.1-29.6,5.1c-9.8,0-19-1.7-27.4-5.1
				c-1.6-0.6-3.2-1-4.8-1C6.7,1.5,2,6.7,2,13.6v39.6c0,24.9,20.3,46,44.3,46c24,0,44.3-21.1,44.3-46V13.6
				C90.5,6.7,85.8,1.6,79.3,1.6L79.3,1.6z M83.6,53.2c0,21.2-17.1,39.1-37.4,39.1C26,92.3,8.9,74.4,8.9,53.2V13.6
				c0-3.1,1.7-5.3,4.2-5.3c0.7,0,1.4,0.2,2.2,0.5c9.2,3.7,19.3,5.6,29.9,5.6c17.4,0,30.5-5,32-5.6c0.7-0.2,1.5-0.4,2.1-0.4
				c2.7,0,4.3,2,4.3,5.1V53.2z M83.6,53.2"/>
		</g>
	</g>
</g>
</svg>
