<?xml version="1.0" encoding="utf-8"?>
<!-- Generator: Adobe Illustrator 16.0.0, SVG Export Plug-In . SVG Version: 6.00 Build 0)  -->
<!DOCTYPE svg PUBLIC "-//W3C//DTD SVG 1.1//EN" "http://www.w3.org/Graphics/SVG/1.1/DTD/svg11.dtd">
<svg version="1.1" xmlns="http://www.w3.org/2000/svg" xmlns:xlink="http://www.w3.org/1999/xlink" x="0px" y="0px" width="84.4px"
	 height="99.6px" viewBox="0 0 84.4 99.6" style="enable-background:new 0 0 84.4 99.6;" xml:space="preserve">
<g id="Layer_2">
</g>
<g id="game_x5F_icons">
	<g>
		<path d="M20,43.6c3.2,10.3,11.2,21.1,22.2,21.1c10.9,0,19-10.7,22.2-21.1c2.7-0.9,4.9-3.6,5.8-7.1c1.2-4.8-0.6-9.2-4-10.6
			c0.3-1.3,0.5-2.6,0.5-3.9c0-11.3-11.3-20.5-25.2-20.5c-13.9,0-25.3,9.2-25.3,20.5c0,1.6,0.3,3.2,0.7,4.7c-2.5,1.9-3.6,5.7-2.6,9.8
			C15.1,40,17.3,42.7,20,43.6L20,43.6z M18.3,30.4c0.4-0.6,0.8-1,1.4-1.2c0.1,0,0.3,0,0.4,0c0.1,0,0.2,0,0.3,0l1.7,0.2l0.3-1.7
			c0.5-3.6,1.6-6.8,3.2-9.6c2.9,3.3,8.8,5.6,15.6,5.6c7.6,0,14.1-2.9,16.5-6.9c2,3,3.4,6.7,4.1,10.9l0.3,1.7l1.7-0.2
			c0.3,0,0.5,0,0.7,0c0.1,0,0.2,0.1,0.3,0.1c1.6,0.7,2.4,3.5,1.7,6.2c-0.7,2.8-2.5,4.4-4,4.6l-1.2,0.2l-0.3,1.2
			C58.4,51.2,51.1,61,42.1,61c-9,0-16.3-9.8-18.9-19.4l-0.3-1.2l-1.2-0.2c-1.4-0.2-3.3-1.9-4-4.6C17.3,33.6,17.5,31.6,18.3,30.4
			L18.3,30.4z M18.3,30.4"/>
		<path d="M63.7,56.4c-2.3,4-5.1,7.4-8.7,9.2c-7.4,3.8-12.9,6.9-12.9,6.9l0,0v-0.1l-0.1,0l-0.1,0v0.1l0,0c0,0-5.5-3.1-12.9-6.9
			c-3.6-1.8-6.3-5.2-8.7-9.2C9.3,60.8,1.6,71.1,1.6,80v18.6h80.6V80C82.3,71.1,74.6,60.8,63.7,56.4L63.7,56.4z M63.7,56.4"/>
	</g>
</g>
</svg>
